<svg xmlns="http://www.w3.org/2000/svg" xmlns:xlink="http://www.w3.org/1999/xlink" viewBox="0 0 82 82">
  <defs>
    <style>
      .a {
        fill: url(#a);
      }

      .b {
        fill: #323437;
      }
    </style>
    <linearGradient id="a" x1="12.86" y1="220.86" x2="66.01" y2="190.17" gradientTransform="matrix(1, 0, 0, -1, 0, 226)" gradientUnits="userSpaceOnUse">
      <stop offset="0" stop-color="#5b9096"/>
      <stop offset="0.11" stop-color="#2e7b9c"/>
      <stop offset="0.2" stop-color="#126ea0"/>
      <stop offset="0.25" stop-color="#0769a1"/>
      <stop offset="0.29" stop-color="#11679f"/>
      <stop offset="0.35" stop-color="#2b629b"/>
      <stop offset="0.43" stop-color="#565993"/>
      <stop offset="0.45" stop-color="#625791"/>
      <stop offset="0.53" stop-color="#7e497f"/>
      <stop offset="0.69" stop-color="#c42551"/>
      <stop offset="0.7" stop-color="#c9224e"/>
      <stop offset="1" stop-color="#e07564"/>
    </linearGradient>
  </defs>
  <title>seidat-logo-square-color</title>
  <g>
    <path class="a" d="M68.88,31.85a1.21,1.21,0,0,0-.59-.47,1.46,1.46,0,0,0-.7.12l-.11.12c-2.11,1.4-4.33,2.68-6.67,4a142.83,142.83,0,0,0,8-28.75,1,1,0,0,0-.7-1.06,1,1,0,0,0-1.17.71V6.6h0c-.58,2.22-1.28,4.44-2,6.67-2-3.74-4.2-7.72-6.66-12.16A1.12,1.12,0,0,0,57.07.76,1,1,0,0,0,56.61,2v.12c2.1,4.44,4,9,5.61,13.56a7.16,7.16,0,0,1-.12,4.91h0a154.2,154.2,0,0,1-7.25,15.54h0a11.71,11.71,0,0,1-5.61,5A79.74,79.74,0,0,1,41.76,44a3.74,3.74,0,0,1-1.63,0c-2.46-.81-5-1.75-7.48-2.8a12.28,12.28,0,0,1-5.61-5,134.23,134.23,0,0,1-7.37-15.54h0a7.84,7.84,0,0,1-.11-4.91C21.31,11,23.18,6.49,25.28,2V1.93h0A1,1,0,0,0,24.82.64.91.91,0,0,0,23.65,1c-2.46,4.56-4.56,8.54-6.55,12.28-.7-2.23-1.4-4.45-2-6.67h0V6.49A1,1,0,0,0,14,5.78a.93.93,0,0,0-.71,1.06,144.15,144.15,0,0,0,8,28.75c-2.22-1.17-4.44-2.57-6.66-4a.12.12,0,0,1-.12-.12,1.42,1.42,0,0,0-.7-.12.78.78,0,0,0-.58.47A1.07,1.07,0,0,0,13.24,33,143.25,143.25,0,0,0,40.48,52.3a1.24,1.24,0,0,0,.93,0A148.41,148.41,0,0,0,68.64,33,.88.88,0,0,0,68.88,31.85Z"/>
    <g>
      <path class="b" d="M1.87,77.46A5.79,5.79,0,0,0,5.46,79a1.87,1.87,0,0,0,2.09-1.59s0-.11,0-.16c0-2.59-6.81-2.13-6.81-6.57a4.43,4.43,0,0,1,4.66-4.2h.18A6.11,6.11,0,0,1,9.9,68L8.85,70.16A5.22,5.22,0,0,0,5.66,68.9a2,2,0,0,0-2.18,1.67.25.25,0,0,1,0,.08c0,2.56,6.8,1.93,6.8,6.55A4.31,4.31,0,0,1,5.9,81.45a3.4,3.4,0,0,1-.45,0,7,7,0,0,1-5-2Z"/>
      <path class="b" d="M15.73,66.72h8.74V69H18.35v3.72h4.88v2.25H18.35v3.9h6.36v2.25h-9Z"/>
      <path class="b" d="M30.32,66.72h2.62V81.16H30.32Z"/>
      <path class="b" d="M39.16,66.72h4.92a6.74,6.74,0,0,1,7.36,6.06,6.31,6.31,0,0,1,0,1.15,6.78,6.78,0,0,1-6.26,7.26,8.22,8.22,0,0,1-1.11,0H39.16Zm4.78,12.22a4.5,4.5,0,0,0,4.81-5,4.51,4.51,0,0,0-4-4.94,5.48,5.48,0,0,0-.81,0H41.79v9.94h2.15Z"/>
      <path class="b" d="M63.68,77.46H58.61l-1.22,3.7H54.67l5.08-14.44h2.74l5.09,14.44H64.89ZM61.13,69.2s-.33,1.43-.61,2.23l-1.28,3.86H63l-1.26-3.84a19.54,19.54,0,0,1-.49-2.25h-.12Z"/>
      <path class="b" d="M74.19,69H69.44V66.72H81.55V69H76.81V81.19H74.19Z"/>
    </g>
  </g>
</svg>
